<svg preserveAspectRatio="none" width="100%" height="100%" overflow="visible" style="display: block;" viewBox="0 0 661.256 93.824" fill="none" xmlns="http://www.w3.org/2000/svg">
<g id="JOURNEYS">
<path d="M61.184 2.944C61.184 2.944 61.184 13.44 61.184 59.136C61.184 62.08 60.8 70.016 57.216 77.568C54.912 82.304 51.712 86.144 47.616 88.832C42.624 92.16 36.352 93.824 28.928 93.824C8.704 93.824 0 81.28 0 74.88C0 74.88 0 74.88 0 74.752C0 74.752 0 74.752 0.128 74.752L14.08 74.88L14.208 75.008V75.136C13.696 75.776 14.208 79.36 16.128 83.2C17.792 86.272 21.632 91.52 28.8 91.52C40.192 91.52 46.976 76.8 46.976 62.592V62.464C47.104 58.752 47.232 25.472 47.232 2.944C47.232 2.816 47.232 2.688 47.36 2.688H61.056C61.184 2.688 61.184 2.816 61.184 2.944Z" fill="var(--fill-0, white)"/>
<path d="M163.32 12.8C174.328 21.504 180.344 33.28 180.344 46.08C180.344 63.872 171.384 75.008 163.832 81.152C154.104 89.216 140.92 93.824 127.48 93.824C114.04 93.824 100.856 89.216 91.256 81.024C80.76 72.064 75 59.648 75 45.952C75 34.56 80.632 22.784 90.616 13.952C100.6 4.992 113.656 0 126.328 0C139.64 0 153.08 4.608 163.32 12.8ZM119.16 3.328C113.656 3.456 108.408 4.864 103.928 7.424C97.144 11.264 91.768 18.176 89.208 26.112C86.136 36.096 87.544 47.744 93.304 59.776C102.136 78.08 114.68 85.376 123.64 88.192C131.192 90.624 142.456 91.52 149.368 87.68C155.768 84.224 163.576 76.416 166.52 65.152C169.464 53.888 166.904 41.472 159.224 29.184C144.76 6.016 127.864 3.072 119.16 3.328Z" fill="var(--fill-0, white)"/>
<path d="M251.827 4.352C251.827 16.256 252.083 58.624 252.083 59.136C252.083 67.712 248.755 76.288 243.123 82.816C236.979 89.984 228.531 93.824 219.443 93.824C206.899 93.824 199.859 87.552 196.019 82.176C191.539 75.648 189.875 67.968 189.875 62.848V59.52C189.875 39.68 189.875 19.2 189.875 4.352C189.875 4.224 190.003 4.224 190.131 4.224H203.699C203.699 4.224 203.699 4.224 203.827 4.224V4.352C203.827 4.352 203.699 38.016 203.571 61.952C203.571 69.376 207.283 90.752 223.923 90.752C226.099 90.752 232.499 89.216 238.515 84.224C243.635 80 249.779 72.064 249.779 58.24C249.779 56.576 249.779 54.912 249.779 53.376C249.907 43.904 249.907 34.304 248.115 25.6C246.195 15.744 242.099 8.96 235.699 4.48C235.571 4.48 235.571 4.352 235.571 4.352C235.571 4.224 235.699 4.224 235.699 4.224H251.699C251.827 4.224 251.827 4.352 251.827 4.352Z" fill="var(--fill-0, white)"/>
<path d="M319.251 44.416C324.243 50.304 330.387 60.672 330.387 76.8C330.387 82.048 329.363 86.4 328.467 89.216C327.443 92.16 326.547 93.824 326.547 93.824H309.907C309.779 93.824 309.779 93.824 309.779 93.824C309.779 93.696 309.779 93.696 309.779 93.696C309.907 93.568 319.379 82.816 319.379 67.712C319.379 65.408 318.611 57.6 314.899 50.048C312.083 44.16 306.451 36.992 296.467 36.992C291.219 36.992 285.587 40.832 279.699 48.256C279.699 51.456 279.699 54.272 279.699 57.088C279.571 65.92 279.571 74.112 279.443 93.696C279.443 93.824 279.315 93.824 279.315 93.824H266.003C265.875 93.824 265.875 93.824 265.875 93.824C265.875 93.824 265.747 93.824 265.875 93.696C265.875 93.056 266.131 27.52 266.131 3.84C266.131 3.712 266.259 3.584 266.259 3.584H279.827C279.955 3.584 297.875 3.584 297.875 3.584C298.003 3.584 314.259 3.84 314.259 15.744C314.259 24.448 301.971 31.872 299.411 33.28C305.939 33.536 313.491 37.76 319.251 44.416ZM300.691 14.72C300.691 11.392 299.411 8.96 297.235 7.552C295.443 6.528 293.779 6.4 293.651 6.4H279.955C279.955 7.936 279.827 21.248 279.699 43.904C279.827 43.776 279.827 43.776 279.827 43.776C280.211 43.264 280.595 42.88 282.003 41.472C283.155 40.192 284.563 38.912 285.971 37.632C292.499 31.232 300.691 23.424 300.691 14.72Z" fill="var(--fill-0, white)"/>
<path d="M411.998 3.84C412.126 3.84 412.126 3.84 412.126 3.968C412.126 12.672 412.126 15.36 412.126 18.816C412.126 25.216 412.126 34.816 412.126 93.696C412.126 93.824 411.998 93.824 411.998 93.824H410.718C410.59 93.824 410.462 93.824 410.462 93.696C405.982 86.528 403.55 82.688 400.35 77.824C398.686 75.136 396.638 71.936 393.95 67.712C386.27 55.68 374.11 36.224 356.702 8.32C356.702 11.264 356.702 25.344 356.318 93.44L356.19 93.568H342.878C342.75 93.568 342.75 93.568 342.75 93.44C342.75 92.672 342.878 27.776 342.878 3.968C342.878 3.84 342.878 3.84 343.006 3.84H356.574C356.702 3.84 356.83 3.84 356.83 3.968C357.854 5.76 395.998 65.792 410.462 88.96L410.334 44.16C410.334 44.16 410.718 36.736 409.054 28.16C406.366 13.824 400.478 7.168 395.998 4.096C395.87 4.096 395.87 3.968 395.87 3.968C395.87 3.84 395.998 3.84 395.998 3.84H411.998Z" fill="var(--fill-0, white)"/>
<path d="M507.119 93.696C507.119 93.696 507.119 93.824 506.991 93.824H427.503C427.375 93.824 427.375 93.824 427.375 93.696C427.375 67.072 427.759 5.12 427.759 4.48C427.759 4.352 427.759 4.352 427.887 4.352H491.759C491.887 4.352 491.887 4.352 491.887 4.352C491.887 4.48 491.887 4.48 491.887 4.48L482.927 18.176H482.671C482.543 18.048 471.151 6.144 452.975 6.144C445.423 6.144 442.351 6.144 441.711 6.144V6.656C441.583 21.376 441.583 35.584 441.455 48.512C441.839 48.896 442.991 49.408 445.551 49.408C451.951 49.408 456.047 43.136 456.687 39.68C456.687 39.552 456.687 39.552 456.815 39.552C456.815 39.552 460.271 39.424 470.767 39.424C470.767 39.424 470.767 39.424 470.895 39.552C470.255 44.16 466.927 47.744 461.167 50.176C456.943 51.968 452.207 52.608 450.287 52.608C445.423 52.608 442.607 51.456 441.455 50.816C441.455 65.536 441.327 80.896 441.327 92.032C449.391 92.032 469.231 91.904 469.359 91.904C469.615 92.032 493.423 92.544 501.999 78.208C502.127 78.208 502.127 78.208 502.127 78.208C502.255 78.208 502.255 78.208 502.255 78.336L507.119 93.696Z" fill="var(--fill-0, white)"/>
<path d="M593.081 3.968C593.081 3.968 593.081 3.968 593.081 4.096L585.529 15.872L543.801 81.792C543.801 81.92 537.401 93.824 525.625 93.824C518.329 93.824 515.897 90.368 515.897 90.112C515.769 90.112 515.769 89.984 515.897 89.984L526.265 80.896C526.265 80.896 526.265 80.896 526.393 80.896V81.024C526.393 81.024 526.649 82.048 527.673 82.944C528.569 83.84 530.489 84.864 533.945 84.864C539.961 84.864 544.057 77.952 544.185 77.824L550.329 67.968L509.625 4.096C509.497 3.968 509.497 3.968 509.625 3.968C509.625 3.84 509.625 3.84 509.753 3.84H526.265C526.265 3.84 526.393 3.84 526.393 3.968L558.393 54.912L568.121 39.168C568.249 38.912 583.993 12.544 578.873 4.096C578.873 3.968 578.873 3.968 578.873 3.968C578.873 3.84 579.001 3.84 579.001 3.84H592.953C592.953 3.84 593.081 3.84 593.081 3.968Z" fill="var(--fill-0, white)"/>
<path d="M651.656 48.256C658.056 52.992 661.128 59.264 661.256 67.968C661.256 77.696 655.24 83.84 650.376 87.296C644.36 91.392 636.296 93.824 629 93.824C613.256 93.696 597 83.584 597 67.2C597 61.184 601.352 54.4 601.48 54.272C601.48 54.272 601.48 54.272 601.608 54.272H621.448C621.576 54.272 621.576 54.272 621.576 54.4C621.704 54.4 621.576 54.528 621.576 54.528C616.2 56.32 610.696 62.336 610.824 69.76C611.08 78.976 617.992 88.96 632.328 88.96C633.48 88.96 658.44 88.704 658.44 69.12C658.44 58.496 646.792 55.424 635.528 52.352C632.584 51.584 629.384 50.816 626.696 49.792C626.568 49.792 626.44 49.792 626.056 49.664C623.88 49.024 617.096 47.36 610.696 43.136C602.504 38.016 598.408 31.104 598.28 22.784C598.28 17.536 600.2 12.928 603.912 9.088C610.568 2.432 621.448 0.127998 624.392 0.127998C636.04 0.127998 643.08 5.504 646.92 9.856C651.016 14.72 652.424 19.584 652.424 19.584C652.424 19.712 652.424 19.712 652.296 19.712C652.296 19.84 652.296 19.84 652.296 19.84L636.808 19.968C636.808 19.968 636.68 19.968 636.68 19.84C636.296 18.56 631.944 7.296 618.632 7.296C601.992 7.296 601.864 19.2 601.864 19.328C601.864 23.552 605.192 31.488 627.464 38.016C627.72 38.144 627.976 38.144 628.104 38.144C638.216 41.472 645.896 44.032 651.656 48.256Z" fill="var(--fill-0, white)"/>
</g>
</svg>
