<svg preserveAspectRatio="none" width="100%" height="100%" overflow="visible" style="display: block;" viewBox="0 0 615.994 94.8496" fill="none" xmlns="http://www.w3.org/2000/svg">
<g id="Union">
<path d="M61.0566 3.71388C61.1845 3.714 61.1846 3.8418 61.1846 3.96974V60.1621C61.1845 63.1065 60.8006 71.0422 57.2168 78.5938C54.9128 83.3298 51.7122 87.1694 47.6162 89.8574C42.6243 93.1854 36.3526 94.8496 28.9287 94.8496C8.70471 94.8496 0 82.3053 0 75.9053V75.7774H0.128906L14.0801 75.9053L14.208 76.0332V76.1621C13.6967 76.8035 14.2094 80.3866 16.1289 84.2256C17.7929 87.2976 21.6329 92.5459 28.8008 92.5459C40.1926 92.5456 46.9766 77.8251 46.9766 63.6172V63.4893C47.1046 59.7754 47.2324 26.497 47.2324 3.96974C47.2324 3.84177 47.2325 3.71395 47.3604 3.71388H61.0566Z" fill="var(--fill-0, white)"/>
<path d="M87.5771 5.37794C87.5767 5.49758 87.4491 39.0842 87.3213 62.9775C87.3213 70.4015 91.0338 91.7774 107.674 91.7774C109.85 91.7772 116.25 90.2417 122.266 85.25C127.386 81.026 133.529 73.0896 133.529 59.2656V54.4014C133.657 44.9296 133.657 35.3298 131.865 26.626C129.945 16.77 125.849 9.98586 119.449 5.50587C119.325 5.50573 119.321 5.38494 119.321 5.37794C119.321 5.25302 119.443 5.25008 119.449 5.25001H135.449C135.577 5.25001 135.577 5.37794 135.577 5.37794C135.577 17.2787 135.833 59.6237 135.833 60.1611C135.833 68.7371 132.505 77.3138 126.873 83.8418C120.729 91.0096 112.281 94.8496 103.193 94.8496C90.6494 94.8496 83.6095 88.5772 79.7695 83.2012C75.2898 76.6734 73.6251 68.994 73.625 63.874V5.37794C73.625 5.24994 73.7538 5.25001 73.8818 5.25001H87.5771V5.37794Z" fill="var(--fill-0, white)"/>
<path d="M162.074 4.86524C162.202 4.86524 162.33 4.86562 162.33 4.99317C163.354 6.78517 201.499 66.8174 215.963 89.9854L215.834 45.1856C215.835 45.1659 216.216 37.7502 214.555 29.1856C211.867 14.8496 205.978 8.19408 201.498 5.12208C201.37 5.12183 201.37 4.99317 201.37 4.99317C201.37 4.86965 201.49 4.86537 201.498 4.86524H217.498C217.626 4.86524 217.626 4.86562 217.626 4.99317V94.7217C217.626 94.8496 217.498 94.8496 217.498 94.8496H216.219C216.091 94.8496 215.963 94.8496 215.963 94.7217C211.483 87.5537 209.051 83.7136 205.851 78.8496C204.187 76.1616 202.138 72.9613 199.45 68.7373C191.77 56.7053 179.61 37.2495 162.202 9.34571C162.202 12.2899 162.202 26.3706 161.818 94.4658L161.69 94.5938H148.379C148.251 94.5938 148.25 94.5936 148.25 94.4658C148.25 93.6978 148.379 28.8012 148.379 4.99317C148.379 4.86562 148.379 4.86524 148.507 4.86524H162.074Z" fill="var(--fill-0, white)"/>
<path d="M281.328 0.00196172C297.2 -0.126037 313.201 6.01797 322.929 16.002V16.1299C322.929 16.2537 322.808 16.2577 322.801 16.2578L321.137 16.8975H321.009C320.881 16.6415 301.68 -4.73394 270.832 8.70606C267.632 10.1144 257.904 15.8739 250.736 26.2412C246.896 31.6172 244.592 37.3777 243.696 43.1377C242.544 50.1777 243.569 57.4736 246.769 64.7695C249.841 71.5535 262.256 91.2649 279.536 92.1611C293.232 92.1611 301.68 86.5299 306.288 81.666C311.257 76.4421 313.056 71.2177 313.072 71.1699C313.072 71.0451 313.194 71.0421 313.2 71.042H327.921V54.6572C327.153 54.5292 322.544 53.2492 316.272 54.7852C310 56.1932 300.656 60.6735 291.824 73.7295H291.696L273.648 73.6016C273.648 73.6016 273.642 73.595 273.521 73.4736C273.521 73.4736 273.521 73.4736 273.521 73.3457C276.209 66.3057 288.241 56.4495 303.601 52.4815C310.385 50.6895 316.913 50.1772 323.057 51.2012C330.096 52.2252 336.368 55.0416 341.872 59.5215V94.7217L341.744 94.8496H327.921C327.921 94.8496 327.792 94.8496 327.792 94.7217C327.792 85.5057 327.793 79.7455 327.921 73.7295V71.8096C326.001 75.0096 319.472 83.5858 302.832 90.8818C297.968 93.0577 289.393 94.0819 283.505 94.3379C282.609 94.4659 281.84 94.4658 281.072 94.4658C260.721 94.4658 241.777 82.8178 234.225 65.5381C228.593 52.7381 228.465 40.0658 233.969 28.6738C239.089 18.3058 248.561 9.60159 260.977 4.22559C267.12 1.53767 274.032 0.130004 281.328 0.00196172Z" fill="var(--fill-0, white)"/>
<path d="M368.202 5.12208C368.206 5.12585 368.33 5.25187 368.33 5.37794C368.33 6.14771 368.202 13.8354 367.818 86.2734C372.17 84.7374 386.251 80.3857 400.971 80.3857H401.354C416.714 80.5138 427.339 85.2497 433.099 94.7217V94.8496H417.866C414.282 89.8577 409.163 86.6572 402.891 84.9932C397.515 83.7132 391.242 83.5854 384.202 84.6094C371.659 86.5294 359.627 91.9056 354.379 94.8496C354.379 94.8496 354.25 94.8496 354.25 94.7217C354.25 93.9537 354.379 29.0582 354.379 5.37794C354.379 5.24994 354.507 5.25001 354.635 5.25001H368.074C368.074 5.12553 368.195 5.12217 368.202 5.12208Z" fill="var(--fill-0, white)"/>
<path d="M510.013 5.50587L501.053 19.2012H500.797C500.669 19.0732 489.276 7.17001 471.101 7.16993H459.837V7.68165C459.709 22.4016 459.708 36.6101 459.58 49.5381C459.964 49.9221 461.117 50.4336 463.677 50.4336C470.076 50.4334 474.172 44.1621 474.812 40.7061C474.812 40.5781 474.812 40.5772 474.94 40.5772C474.949 40.5768 478.41 40.4492 488.893 40.4492C488.893 40.4492 488.893 40.4493 489.021 40.5772C488.381 45.1852 485.052 48.7692 479.292 51.2012C475.068 52.9931 470.332 53.6338 468.412 53.6338C463.548 53.6337 460.732 52.4818 459.58 51.8418C459.58 66.5617 459.452 81.9217 459.452 93.0576C467.516 93.0576 487.353 92.9297 487.484 92.9297C487.741 93.0577 511.548 93.5693 520.124 79.2334H520.252C520.38 79.2334 520.381 79.2336 520.381 79.3613L525.244 94.7217C525.244 94.7251 525.242 94.8496 525.116 94.8496H445.629C445.501 94.8496 445.5 94.8496 445.5 94.7217C445.5 68.1011 445.885 6.1616 445.885 5.50587C445.885 5.37786 445.885 5.37794 446.013 5.37794H510.013V5.50587Z" fill="var(--fill-0, white)"/>
<path d="M600.763 5.50587L591.803 19.2012H591.547C591.417 19.0711 580.025 7.16996 561.851 7.16993H550.587V7.68165C550.459 22.4016 550.458 36.6101 550.33 49.5381C550.714 49.9221 551.867 50.4336 554.427 50.4336C560.826 50.4334 564.922 44.1621 565.562 40.7061C565.562 40.5781 565.562 40.5772 565.69 40.5772C565.69 40.5772 569.147 40.4492 579.643 40.4492C579.643 40.4492 579.643 40.4494 579.771 40.5772C579.131 45.185 575.803 48.7692 570.043 51.2012C565.819 52.9932 561.082 53.6338 559.162 53.6338C554.298 53.6337 551.482 52.4818 550.33 51.8418C550.33 66.5617 550.202 81.9217 550.202 93.0576C558.264 93.0576 578.094 92.9298 578.234 92.9297C578.49 93.0577 602.299 93.5694 610.875 79.2334H611.003C611.13 79.2334 611.131 79.2338 611.131 79.3613L615.994 94.7217C615.994 94.7251 615.992 94.8496 615.866 94.8496H536.379C536.251 94.8496 536.251 94.8496 536.251 94.7217C536.251 68.1011 536.635 6.1616 536.635 5.50587C536.635 5.37786 536.635 5.37794 536.763 5.37794H600.763V5.50587Z" fill="var(--fill-0, white)"/>
</g>
</svg>
