<svg preserveAspectRatio="none" width="100%" height="100%" overflow="visible" style="display: block;" viewBox="0 0 51 72.3081" fill="none" xmlns="http://www.w3.org/2000/svg">
<g id="Group 12">
<path id="Vector" d="M0 25.4355H14.1963V33.6538C14.1963 34.6547 14.4303 35.4371 14.8984 36.0007C15.3665 36.5644 16.0423 36.8473 16.926 36.8494C17.777 36.8494 18.4435 36.5665 18.9256 36.0007C19.4077 35.435 19.6492 34.6526 19.6502 33.6538V9.53674e-07H32.9773V45.978H5.21514L0 25.4355Z" fill="var(--fill-0, white)"/>
<path id="Vector_2" d="M51 72.3081H23.2449L18.0297 51.7624H32.226V59.9807C32.226 60.9795 32.4601 61.7618 32.9281 62.3276C33.3962 62.8934 34.0702 63.1774 34.9502 63.1795C35.8002 63.1795 36.4662 62.8966 36.9483 62.3308C37.4304 61.765 37.6719 60.9827 37.6729 59.9839V26.3301H51V72.3081Z" fill="var(--fill-0, white)"/>
</g>
</svg>
