<svg preserveAspectRatio="none" width="100%" height="100%" overflow="visible" style="display: block;" viewBox="0 0 355 39.581" fill="none" xmlns="http://www.w3.org/2000/svg">
<g id="Group 11">
<path id="Vector" d="M35.0818 10.1126V13.3706C35.0654 13.7099 35.1523 14.0442 35.3243 14.304C35.5202 14.5219 35.7713 14.6419 36.0313 14.6419C36.2912 14.6419 36.5423 14.5219 36.7382 14.304C36.8266 14.1774 36.8945 14.0297 36.9381 13.8696C36.9817 13.7094 37 13.5399 36.9921 13.3706V3.05176e-05H41.6685V18.2767H31.9292L30.0989 10.1097L35.0818 10.1126Z" fill="var(--fill-0, #081D01)" fill-opacity="0.06"/>
<path id="Vector_2" d="M55.6426 10.1126L53.8123 18.2796H44.073V3.05176e-05H48.7493V13.3706C48.7415 13.5399 48.7598 13.7094 48.8034 13.8696C48.847 14.0297 48.9149 14.1774 49.0033 14.304C49.0955 14.4195 49.2056 14.5092 49.3266 14.5674C49.4475 14.6257 49.5766 14.6512 49.7057 14.6423C49.8364 14.6542 49.9675 14.6301 50.0903 14.5717C50.213 14.5133 50.3245 14.422 50.4172 14.304C50.59 14.0447 50.6777 13.7103 50.662 13.3706V10.1126H55.6426Z" fill="var(--fill-0, #081D01)" fill-opacity="0.06"/>
<path id="Vector_3" d="M30.0989 29.4626L31.9292 21.2955H41.6685V39.5722H36.9921V26.2045C37 26.0353 36.9817 25.8657 36.9381 25.7056C36.8945 25.5454 36.8266 25.3978 36.7382 25.2711C36.5423 25.0533 36.2912 24.9332 36.0313 24.9332C35.7713 24.9332 35.5202 25.0533 35.3243 25.2711C35.1523 25.5309 35.0654 25.8652 35.0818 26.2045V29.4684L30.0989 29.4626Z" fill="var(--fill-0, #081D01)" fill-opacity="0.06"/>
<path id="Vector_4" d="M50.662 29.4626V26.2045C50.6777 25.8648 50.59 25.5305 50.4172 25.2712C50.3245 25.1531 50.213 25.0618 50.0903 25.0035C49.9675 24.9451 49.8364 24.921 49.7057 24.9328C49.5766 24.924 49.4475 24.9495 49.3266 25.0077C49.2056 25.066 49.0955 25.1557 49.0033 25.2712C48.9149 25.3978 48.847 25.5454 48.8034 25.7056C48.7598 25.8658 48.7415 26.0353 48.7493 26.2045V39.581H44.073V21.2985H53.8123L55.6426 29.4655L50.662 29.4626Z" fill="var(--fill-0, #081D01)" fill-opacity="0.06"/>
<path id="Vector_5" d="M18.0854 9.32214H15.5207C15.2542 9.30118 14.9916 9.41309 14.7886 9.63424C14.6188 9.88403 14.5253 10.2035 14.5253 10.5341C14.5253 10.8646 14.6188 11.1841 14.7886 11.4339C14.9894 11.6612 15.2527 11.7776 15.5207 11.7577H26.0127V17.7225H11.6817V5.3028L18.0877 2.96936L18.0854 9.32214Z" fill="var(--fill-0, #081D01)" fill-opacity="0.06"/>
<path id="Vector_6" d="M18.0854 35.5383L11.6794 33.2048V20.788H26.0128V26.7499H15.5207C15.2527 26.73 14.9894 26.8464 14.7886 27.0737C14.6191 27.3242 14.5258 27.6441 14.5258 27.975C14.5258 28.3059 14.6191 28.6258 14.7886 28.8763C14.9926 29.095 15.2546 29.2057 15.5207 29.1855H18.0831L18.0854 35.5383Z" fill="var(--fill-0, #081D01)" fill-opacity="0.06"/>
<path id="Vector_7" d="M7.92966 2.96936L14.3356 5.3028V17.7225H0V11.7577H10.4875C10.7555 11.7776 11.0188 11.6612 11.2196 11.4339C11.3908 11.1849 11.4851 10.8652 11.4851 10.5341C11.4851 10.203 11.3908 9.88321 11.2196 9.63424C11.0165 9.41309 10.754 9.30118 10.4875 9.32214H7.92509L7.92966 2.96936Z" fill="var(--fill-0, #081D01)" fill-opacity="0.06"/>
<path id="Vector_8" d="M7.92966 29.1855H10.4875C10.7536 29.2057 11.0156 29.095 11.2196 28.8763C11.3905 28.6266 11.4846 28.3064 11.4846 27.975C11.4846 27.6436 11.3905 27.3234 11.2196 27.0737C11.0188 26.8464 10.7555 26.73 10.4875 26.7499H0V20.788H14.3356V33.2048L7.92966 35.5383V29.1855Z" fill="var(--fill-0, #081D01)" fill-opacity="0.06"/>
<path id="Vector_9" d="M94.9523 10.1126V13.3706C94.9357 13.7105 95.0235 14.0453 95.1972 14.304C95.3924 14.5222 95.6433 14.6426 95.9029 14.6426C96.1626 14.6426 96.4135 14.5222 96.6087 14.304C96.6971 14.1774 96.765 14.0297 96.8086 13.8696C96.8522 13.7094 96.8706 13.5399 96.8627 13.3706V3.05176e-05H101.544V18.2767H91.7997L89.9694 10.1097L94.9523 10.1126Z" fill="var(--fill-0, #081D01)" fill-opacity="0.06"/>
<path id="Vector_10" d="M115.515 10.1126L113.685 18.2796H103.944V3.05176e-05H108.622V13.3706C108.614 13.5399 108.633 13.7094 108.676 13.8696C108.72 14.0297 108.788 14.1774 108.876 14.304C109.071 14.5222 109.322 14.6426 109.582 14.6426C109.842 14.6426 110.092 14.5222 110.288 14.304C110.461 14.0453 110.549 13.7105 110.533 13.3706V10.1126H115.515Z" fill="var(--fill-0, #081D01)" fill-opacity="0.06"/>
<path id="Vector_11" d="M89.9694 29.4626L91.7997 21.2955H101.544V39.5722H96.8627V26.2045C96.8706 26.0353 96.8522 25.8657 96.8086 25.7056C96.765 25.5454 96.6971 25.3978 96.6087 25.2711C96.4135 25.0529 96.1626 24.9326 95.9029 24.9326C95.6433 24.9326 95.3924 25.0529 95.1972 25.2711C95.0235 25.5298 94.9357 25.8646 94.9523 26.2045V29.4684L89.9694 29.4626Z" fill="var(--fill-0, #081D01)" fill-opacity="0.06"/>
<path id="Vector_12" d="M110.533 29.4626V26.2045C110.549 25.8647 110.461 25.5299 110.288 25.2712C110.092 25.0529 109.842 24.9326 109.582 24.9326C109.322 24.9326 109.071 25.0529 108.876 25.2712C108.788 25.3978 108.72 25.5454 108.676 25.7056C108.633 25.8658 108.614 26.0353 108.622 26.2045V39.581H103.944V21.2985H113.685L115.515 29.4655L110.533 29.4626Z" fill="var(--fill-0, #081D01)" fill-opacity="0.06"/>
<path id="Vector_13" d="M77.9583 9.32214H75.3959C75.1293 9.30087 74.8667 9.41282 74.6638 9.63424C74.4926 9.88321 74.3982 10.203 74.3982 10.5341C74.3982 10.8652 74.4926 11.1849 74.6638 11.4339C74.7631 11.5466 74.8789 11.6332 75.0045 11.6887C75.1302 11.7443 75.2632 11.7677 75.3959 11.7577H85.8879V17.7225H71.5523V5.3028L77.9583 2.96936V9.32214Z" fill="var(--fill-0, #081D01)" fill-opacity="0.06"/>
<path id="Vector_14" d="M77.9583 35.5383L71.5523 33.2048V20.788H85.8879V26.7499H75.3959C75.2632 26.7399 75.1302 26.7633 75.0045 26.8189C74.8789 26.8744 74.7631 26.961 74.6638 27.0737C74.4929 27.3234 74.3987 27.6436 74.3987 27.975C74.3987 28.3064 74.4929 28.6266 74.6638 28.8763C74.8675 29.0956 75.1297 29.2063 75.3959 29.1855H77.9583V35.5383Z" fill="var(--fill-0, #081D01)" fill-opacity="0.06"/>
<path id="Vector_15" d="M67.8025 2.96936L74.2085 5.3028V17.7225H59.8705V11.7577H70.3626C70.4953 11.7677 70.6283 11.7443 70.7539 11.6887C70.8796 11.6332 70.9954 11.5466 71.0947 11.4339C71.2659 11.1849 71.3603 10.8652 71.3603 10.5341C71.3603 10.203 71.2659 9.88321 71.0947 9.63424C70.8918 9.41282 70.6292 9.30087 70.3626 9.32214H67.8025V2.96936Z" fill="var(--fill-0, #081D01)" fill-opacity="0.06"/>
<path id="Vector_16" d="M67.8025 29.1855H70.3626C70.6287 29.2063 70.8909 29.0956 71.0947 28.8763C71.2656 28.6266 71.3598 28.3064 71.3598 27.975C71.3598 27.6436 71.2656 27.3234 71.0947 27.0737C70.9954 26.961 70.8796 26.8744 70.7539 26.8189C70.6283 26.7633 70.4953 26.7399 70.3626 26.7499H59.8705V20.788H74.2062V33.2048L67.8002 35.5383L67.8025 29.1855Z" fill="var(--fill-0, #081D01)" fill-opacity="0.06"/>
<path id="Vector_17" d="M154.823 10.1126V13.3706C154.807 13.7103 154.895 14.0447 155.068 14.304C155.16 14.4221 155.272 14.5133 155.395 14.5717C155.517 14.6301 155.649 14.6542 155.779 14.6423C155.908 14.6508 156.037 14.6252 156.158 14.5669C156.279 14.5087 156.389 14.4192 156.482 14.304C156.57 14.1774 156.638 14.0297 156.681 13.8696C156.725 13.7094 156.743 13.5399 156.736 13.3706V3.05176e-05H161.412V18.2767H151.673L149.842 10.1097L154.823 10.1126Z" fill="var(--fill-0, #081D01)" fill-opacity="0.06"/>
<path id="Vector_18" d="M175.386 10.1126L173.556 18.2796H163.816V3.05176e-05H168.493V13.3706C168.485 13.5399 168.503 13.7094 168.547 13.8696C168.59 14.0297 168.658 14.1774 168.747 14.304C168.943 14.5219 169.194 14.6419 169.454 14.6419C169.714 14.6419 169.965 14.5219 170.161 14.304C170.334 14.0451 170.423 13.7107 170.408 13.3706V10.1126H175.386Z" fill="var(--fill-0, #081D01)" fill-opacity="0.06"/>
<path id="Vector_19" d="M149.842 29.4626L151.673 21.2955H161.412V39.5722H156.736V26.2045C156.743 26.0353 156.725 25.8657 156.681 25.7056C156.638 25.5454 156.57 25.3978 156.482 25.2711C156.389 25.156 156.279 25.0664 156.158 25.0082C156.037 24.95 155.908 24.9243 155.779 24.9328C155.649 24.921 155.517 24.9451 155.395 25.0034C155.272 25.0618 155.16 25.1531 155.068 25.2711C154.895 25.5305 154.807 25.8648 154.823 26.2045V29.4684L149.842 29.4626Z" fill="var(--fill-0, #081D01)" fill-opacity="0.06"/>
<path id="Vector_20" d="M170.408 29.4626V26.2045C170.424 25.8652 170.337 25.5309 170.165 25.2712C169.969 25.0533 169.718 24.9333 169.458 24.9333C169.198 24.9333 168.947 25.0533 168.751 25.2712C168.663 25.3978 168.595 25.5454 168.551 25.7056C168.508 25.8658 168.489 26.0353 168.497 26.2045V39.581H163.816V21.2985H173.556L175.386 29.4655L170.408 29.4626Z" fill="var(--fill-0, #081D01)" fill-opacity="0.06"/>
<path id="Vector_21" d="M137.829 9.32214H135.266C135 9.30118 134.737 9.41309 134.534 9.63424C134.364 9.88403 134.271 10.2035 134.271 10.5341C134.271 10.8646 134.364 11.1841 134.534 11.4339C134.735 11.6612 134.998 11.7776 135.266 11.7577H145.758V17.7225H131.423V5.3028L137.829 2.96936V9.32214Z" fill="var(--fill-0, #081D01)" fill-opacity="0.06"/>
<path id="Vector_22" d="M137.829 35.5383L131.423 33.2048V20.788H145.758V26.7499H135.266C134.998 26.73 134.735 26.8464 134.534 27.0737C134.365 27.3242 134.271 27.6441 134.271 27.975C134.271 28.3059 134.365 28.6258 134.534 28.8763C134.738 29.095 135 29.2057 135.266 29.1855H137.829V35.5383Z" fill="var(--fill-0, #081D01)" fill-opacity="0.06"/>
<path id="Vector_23" d="M127.673 2.96936L134.079 5.3028V17.7225H119.743V11.7577H130.235C130.503 11.7776 130.767 11.6612 130.968 11.4339C131.137 11.1841 131.231 10.8646 131.231 10.5341C131.231 10.2035 131.137 9.88403 130.968 9.63424C130.765 9.41309 130.502 9.30118 130.235 9.32214H127.673V2.96936Z" fill="var(--fill-0, #081D01)" fill-opacity="0.06"/>
<path id="Vector_24" d="M127.673 29.1855H130.235C130.502 29.2057 130.764 29.095 130.968 28.8763C131.137 28.6258 131.23 28.3059 131.23 27.975C131.23 27.6441 131.137 27.3242 130.968 27.0737C130.767 26.8464 130.503 26.73 130.235 26.7499H119.743V20.788H134.079V33.2048L127.673 35.5383V29.1855Z" fill="var(--fill-0, #081D01)" fill-opacity="0.06"/>
<path id="Vector_25" d="M214.696 10.1126V13.3706C214.679 13.7099 214.766 14.0442 214.938 14.304C215.134 14.5219 215.385 14.6419 215.645 14.6419C215.905 14.6419 216.156 14.5219 216.352 14.304C216.441 14.1774 216.508 14.0297 216.552 13.8696C216.596 13.7094 216.614 13.5399 216.606 13.3706V3.05176e-05H221.282V18.2767H211.543L209.713 10.1097L214.696 10.1126Z" fill="var(--fill-0, #081D01)" fill-opacity="0.06"/>
<path id="Vector_26" d="M235.257 10.1126L233.426 18.2796H223.687V3.05176e-05H228.363V13.3706C228.355 13.5399 228.374 13.7094 228.417 13.8696C228.461 14.0297 228.529 14.1774 228.617 14.304C228.71 14.4195 228.82 14.5092 228.94 14.5674C229.061 14.6257 229.191 14.6512 229.32 14.6423C229.45 14.6542 229.581 14.6301 229.704 14.5717C229.827 14.5133 229.938 14.422 230.031 14.304C230.204 14.0447 230.292 13.7103 230.276 13.3706V10.1126H235.257Z" fill="var(--fill-0, #081D01)" fill-opacity="0.06"/>
<path id="Vector_27" d="M209.713 29.4626L211.543 21.2955H221.282V39.5722H216.606V26.2045C216.614 26.0353 216.596 25.8657 216.552 25.7056C216.508 25.5454 216.441 25.3978 216.352 25.2711C216.156 25.0533 215.905 24.9332 215.645 24.9332C215.385 24.9332 215.134 25.0533 214.938 25.2711C214.766 25.5309 214.679 25.8652 214.696 26.2045V29.4684L209.713 29.4626Z" fill="var(--fill-0, #081D01)" fill-opacity="0.06"/>
<path id="Vector_28" d="M230.276 29.4626V26.2045C230.292 25.8648 230.204 25.5305 230.031 25.2712C229.938 25.1531 229.827 25.0618 229.704 25.0035C229.581 24.9451 229.45 24.921 229.32 24.9328C229.191 24.924 229.061 24.9495 228.94 25.0077C228.82 25.066 228.71 25.1557 228.617 25.2712C228.529 25.3978 228.461 25.5454 228.417 25.7056C228.374 25.8658 228.355 26.0353 228.363 26.2045V39.581H223.687V21.2985H233.426L235.257 29.4655L230.276 29.4626Z" fill="var(--fill-0, #081D01)" fill-opacity="0.06"/>
<path id="Vector_29" d="M197.699 9.32214H195.137C194.87 9.30118 194.608 9.41309 194.405 9.63424C194.235 9.88403 194.142 10.2035 194.142 10.5341C194.142 10.8646 194.235 11.1841 194.405 11.4339C194.606 11.6612 194.869 11.7776 195.137 11.7577H205.64V17.7225H191.296V5.3028L197.702 2.96936L197.699 9.32214Z" fill="var(--fill-0, #081D01)" fill-opacity="0.06"/>
<path id="Vector_30" d="M197.699 35.5383L191.293 33.2048V20.788H205.64V26.7499H195.148C194.88 26.73 194.617 26.8464 194.416 27.0737C194.247 27.3242 194.153 27.6441 194.153 27.975C194.153 28.3059 194.247 28.6258 194.416 28.8763C194.62 29.095 194.882 29.2057 195.148 29.1855H197.711L197.699 35.5383Z" fill="var(--fill-0, #081D01)" fill-opacity="0.06"/>
<path id="Vector_31" d="M187.544 2.96936L193.95 5.3028V17.7225H179.614V11.7577H190.106C190.374 11.7776 190.637 11.6612 190.838 11.4339C191.009 11.1849 191.104 10.8652 191.104 10.5341C191.104 10.203 191.009 9.88321 190.838 9.63424C190.635 9.41309 190.373 9.30118 190.106 9.32214H187.544V2.96936Z" fill="var(--fill-0, #081D01)" fill-opacity="0.06"/>
<path id="Vector_32" d="M187.544 29.1855H190.106C190.372 29.2057 190.634 29.095 190.838 28.8763C191.009 28.6266 191.103 28.3064 191.103 27.975C191.103 27.6436 191.009 27.3234 190.838 27.0737C190.637 26.8464 190.374 26.73 190.106 26.7499H179.614V20.788H193.95V33.2048L187.544 35.5383V29.1855Z" fill="var(--fill-0, #081D01)" fill-opacity="0.06"/>
<path id="Vector_33" d="M274.566 10.1126V13.3706C274.55 13.7105 274.637 14.0453 274.811 14.304C275.006 14.5222 275.257 14.6426 275.517 14.6426C275.777 14.6426 276.027 14.5222 276.223 14.304C276.311 14.1774 276.379 14.0297 276.423 13.8696C276.466 13.7094 276.485 13.5399 276.477 13.3706V3.05176e-05H281.155V18.2767H271.414L269.583 10.1097L274.566 10.1126Z" fill="var(--fill-0, #081D01)" fill-opacity="0.06"/>
<path id="Vector_34" d="M295.129 10.1126L293.299 18.2796H283.557V3.05176e-05H288.232V13.3706C288.224 13.5399 288.242 13.7094 288.286 13.8696C288.329 14.0297 288.397 14.1774 288.486 14.304C288.681 14.5222 288.932 14.6426 289.191 14.6426C289.451 14.6426 289.702 14.5222 289.897 14.304C290.071 14.0453 290.159 13.7105 290.142 13.3706V10.1126H295.129Z" fill="var(--fill-0, #081D01)" fill-opacity="0.06"/>
<path id="Vector_35" d="M269.583 29.4626L271.414 21.2955H281.155V39.5722H276.477V26.2045C276.485 26.0353 276.466 25.8657 276.423 25.7056C276.379 25.5454 276.311 25.3978 276.223 25.2711C276.027 25.0529 275.777 24.9326 275.517 24.9326C275.257 24.9326 275.006 25.0529 274.811 25.2711C274.637 25.5298 274.55 25.8646 274.566 26.2045V29.4684L269.583 29.4626Z" fill="var(--fill-0, #081D01)" fill-opacity="0.06"/>
<path id="Vector_36" d="M290.147 29.4626V26.2045C290.163 25.8647 290.075 25.5299 289.902 25.2712C289.706 25.0529 289.456 24.9326 289.196 24.9326C288.936 24.9326 288.685 25.0529 288.49 25.2712C288.401 25.3974 288.332 25.5448 288.288 25.705C288.243 25.8651 288.224 26.0349 288.232 26.2045V39.581H283.553V21.2985H293.295L295.125 29.4655L290.147 29.4626Z" fill="var(--fill-0, #081D01)" fill-opacity="0.06"/>
<path id="Vector_37" d="M257.574 9.32214H255.012C254.746 9.30087 254.483 9.41282 254.28 9.63424C254.109 9.88321 254.014 10.203 254.014 10.5341C254.014 10.8652 254.109 11.1849 254.28 11.4339C254.379 11.5466 254.495 11.6332 254.621 11.6887C254.746 11.7443 254.879 11.7677 255.012 11.7577H265.504V17.7225H251.169V5.3028L257.574 2.96936V9.32214Z" fill="var(--fill-0, #081D01)" fill-opacity="0.06"/>
<path id="Vector_38" d="M257.574 35.5383L251.169 33.2048V20.788H265.504V26.7499H255.012C254.879 26.7399 254.746 26.7633 254.621 26.8189C254.495 26.8744 254.379 26.961 254.28 27.0737C254.109 27.3234 254.015 27.6436 254.015 27.975C254.015 28.3064 254.109 28.6266 254.28 28.8763C254.484 29.0956 254.746 29.2063 255.012 29.1855H257.574V35.5383Z" fill="var(--fill-0, #081D01)" fill-opacity="0.06"/>
<path id="Vector_39" d="M247.416 2.96936L253.822 5.3028V17.7225H239.487V11.7577H249.979C250.112 11.7677 250.245 11.7443 250.37 11.6887C250.496 11.6332 250.612 11.5466 250.711 11.4339C250.882 11.1849 250.977 10.8652 250.977 10.5341C250.977 10.203 250.882 9.88321 250.711 9.63424C250.508 9.41282 250.245 9.30087 249.979 9.32214H247.416V2.96936Z" fill="var(--fill-0, #081D01)" fill-opacity="0.06"/>
<path id="Vector_40" d="M247.416 29.1855H249.977C250.243 29.2063 250.505 29.0956 250.709 28.8763C250.88 28.6266 250.974 28.3064 250.974 27.975C250.974 27.6436 250.88 27.3234 250.709 27.0737C250.609 26.961 250.493 26.8744 250.368 26.8189C250.242 26.7633 250.109 26.7399 249.977 26.7499H239.484V20.788H253.82V33.2048L247.414 35.5383L247.416 29.1855Z" fill="var(--fill-0, #081D01)" fill-opacity="0.06"/>
<path id="Vector_41" d="M334.446 10.1126V13.3706C334.43 13.7103 334.518 14.0447 334.691 14.304C334.783 14.4221 334.895 14.5133 335.018 14.5717C335.14 14.6301 335.272 14.6542 335.402 14.6423C335.531 14.6512 335.66 14.6257 335.781 14.5674C335.902 14.5092 336.012 14.4195 336.105 14.304C336.193 14.1774 336.261 14.0297 336.305 13.8696C336.348 13.7094 336.366 13.5399 336.359 13.3706V3.05176e-05H341.035V18.2767H331.296L329.465 10.1097L334.446 10.1126Z" fill="var(--fill-0, #081D01)" fill-opacity="0.06"/>
<path id="Vector_42" d="M355 10.1126L353.17 18.2796H343.43V3.05176e-05H348.107V13.3706C348.099 13.5399 348.117 13.7094 348.161 13.8696C348.204 14.0297 348.272 14.1774 348.361 14.304C348.557 14.5219 348.808 14.6419 349.068 14.6419C349.328 14.6419 349.579 14.5219 349.775 14.304C349.947 14.0442 350.033 13.7099 350.017 13.3706V10.1126H355Z" fill="var(--fill-0, #081D01)" fill-opacity="0.06"/>
<path id="Vector_43" d="M329.456 29.4626L331.286 21.2955H341.026V39.5722H336.349V26.2045C336.357 26.0353 336.339 25.8657 336.295 25.7056C336.252 25.5454 336.184 25.3978 336.096 25.2711C336.003 25.1557 335.893 25.066 335.772 25.0077C335.651 24.9494 335.522 24.9239 335.393 24.9328C335.262 24.921 335.131 24.9451 335.009 25.0034C334.886 25.0618 334.774 25.1531 334.682 25.2711C334.512 25.5322 334.428 25.8664 334.446 26.2045V29.4684L329.456 29.4626Z" fill="var(--fill-0, #081D01)" fill-opacity="0.06"/>
<path id="Vector_44" d="M350.017 29.4626V26.2045C350.033 25.8652 349.947 25.5309 349.775 25.2712C349.579 25.0533 349.328 24.9333 349.068 24.9333C348.808 24.9333 348.557 25.0533 348.361 25.2712C348.272 25.3978 348.204 25.5454 348.161 25.7056C348.117 25.8658 348.099 26.0353 348.107 26.2045V39.581H343.43V21.2985H353.17L355 29.4655L350.017 29.4626Z" fill="var(--fill-0, #081D01)" fill-opacity="0.06"/>
<path id="Vector_45" d="M317.443 9.32214H314.88C314.614 9.30118 314.351 9.41309 314.148 9.63424C313.978 9.88403 313.885 10.2035 313.885 10.5341C313.885 10.8646 313.978 11.1841 314.148 11.4339C314.349 11.6612 314.612 11.7776 314.88 11.7577H325.372V17.7225H311.037V5.3028L317.443 2.96936V9.32214Z" fill="var(--fill-0, #081D01)" fill-opacity="0.06"/>
<path id="Vector_46" d="M317.443 35.5383L311.037 33.2048V20.788H325.372V26.7499H314.88C314.612 26.73 314.349 26.8464 314.148 27.0737C313.979 27.3242 313.885 27.6441 313.885 27.975C313.885 28.3059 313.979 28.6258 314.148 28.8763C314.352 29.095 314.614 29.2057 314.88 29.1855H317.443V35.5383Z" fill="var(--fill-0, #081D01)" fill-opacity="0.06"/>
<path id="Vector_47" d="M307.287 2.96936L313.693 5.3028V17.7225H299.357V11.7577H309.849C310.117 11.7776 310.381 11.6612 310.582 11.4339C310.751 11.1841 310.845 10.8646 310.845 10.5341C310.845 10.2035 310.751 9.88403 310.582 9.63424C310.378 9.41309 310.116 9.30118 309.849 9.32214H307.287V2.96936Z" fill="var(--fill-0, #081D01)" fill-opacity="0.06"/>
<path id="Vector_48" d="M307.287 29.1855H309.849C310.115 29.2057 310.378 29.095 310.582 28.8763C310.751 28.6258 310.844 28.3059 310.844 27.975C310.844 27.6441 310.751 27.3242 310.582 27.0737C310.381 26.8464 310.117 26.73 309.849 26.7499H299.357V20.788H313.693V33.2048L307.287 35.5383V29.1855Z" fill="var(--fill-0, #081D01)" fill-opacity="0.06"/>
</g>
</svg>
