<svg preserveAspectRatio="none" width="100%" height="100%" overflow="visible" style="display: block;" viewBox="0 0 51 56.5025" fill="none" xmlns="http://www.w3.org/2000/svg">
<g id="Group 12">
<path id="Vector" d="M0 19.8756H14.1963V26.2975C14.1963 27.0796 14.4303 27.691 14.8984 28.1314C15.3665 28.5719 16.0423 28.793 16.926 28.7946C17.777 28.7946 18.4435 28.5736 18.9256 28.1314C19.4077 27.6893 19.6492 27.078 19.6502 26.2975V0H32.9773V35.9278H5.21514L0 19.8756Z" fill="var(--fill-0, #E79E23)"/>
<path id="Vector_2" d="M51 56.5025H23.2449L18.0297 40.4479H32.226V46.8697C32.226 47.6502 32.4601 48.2616 32.9281 48.7037C33.3962 49.1458 34.0702 49.3677 34.9502 49.3693C35.8002 49.3693 36.4662 49.1483 36.9483 48.7061C37.4304 48.264 37.6719 47.6527 37.6729 46.8722V20.5747H51V56.5025Z" fill="var(--fill-0, #E79E23)"/>
</g>
</svg>
